<mxfile host="Electron" agent="Mozilla/5.0 (Macintosh; Intel Mac OS X 10_15_7) AppleWebKit/537.36 (KHTML, like Gecko) draw.io/26.0.9 Chrome/128.0.6613.186 Electron/32.2.5 Safari/537.36" version="26.0.9">
  <diagram name="Page-1" id="8SAmYNXtpkGQ11YWcc8L">
    <mxGraphModel dx="1804" dy="761" grid="1" gridSize="10" guides="1" tooltips="1" connect="1" arrows="1" fold="1" page="1" pageScale="1" pageWidth="850" pageHeight="1100" math="0" shadow="0">
      <root>
        <mxCell id="0" />
        <mxCell id="1" parent="0" />
        <mxCell id="H7nxpd0ft--xDJzWJZUR-1" value="&lt;b&gt;&lt;font style=&quot;font-size: 24px;&quot;&gt;Data Flow Diagram&lt;/font&gt;&lt;/b&gt;" style="text;html=1;align=center;verticalAlign=middle;whiteSpace=wrap;rounded=0;" vertex="1" parent="1">
          <mxGeometry x="-10" y="30" width="320" as="geometry" />
        </mxCell>
        <mxCell id="H7nxpd0ft--xDJzWJZUR-3" value="" style="rounded=0;whiteSpace=wrap;html=1;fillColor=none;dashed=1;" vertex="1" parent="1">
          <mxGeometry x="10" y="200" width="140" height="370" as="geometry" />
        </mxCell>
        <mxCell id="H7nxpd0ft--xDJzWJZUR-4" value="&lt;font style=&quot;font-size: 22px;&quot;&gt;Sources&lt;/font&gt;" style="rounded=1;whiteSpace=wrap;html=1;strokeColor=none;" vertex="1" parent="1">
          <mxGeometry x="35" y="150" width="90" height="40" as="geometry" />
        </mxCell>
        <mxCell id="H7nxpd0ft--xDJzWJZUR-17" style="edgeStyle=orthogonalEdgeStyle;rounded=0;orthogonalLoop=1;jettySize=auto;html=1;entryX=0;entryY=0.5;entryDx=0;entryDy=0;" edge="1" parent="1" source="H7nxpd0ft--xDJzWJZUR-5" target="H7nxpd0ft--xDJzWJZUR-13">
          <mxGeometry relative="1" as="geometry" />
        </mxCell>
        <mxCell id="H7nxpd0ft--xDJzWJZUR-20" style="edgeStyle=orthogonalEdgeStyle;rounded=0;orthogonalLoop=1;jettySize=auto;html=1;" edge="1" parent="1" source="H7nxpd0ft--xDJzWJZUR-5" target="H7nxpd0ft--xDJzWJZUR-15">
          <mxGeometry relative="1" as="geometry" />
        </mxCell>
        <mxCell id="H7nxpd0ft--xDJzWJZUR-21" style="edgeStyle=orthogonalEdgeStyle;rounded=0;orthogonalLoop=1;jettySize=auto;html=1;entryX=0;entryY=0.75;entryDx=0;entryDy=0;" edge="1" parent="1" source="H7nxpd0ft--xDJzWJZUR-5" target="H7nxpd0ft--xDJzWJZUR-16">
          <mxGeometry relative="1" as="geometry" />
        </mxCell>
        <mxCell id="H7nxpd0ft--xDJzWJZUR-5" value="" style="image;aspect=fixed;html=1;points=[];align=center;fontSize=12;image=img/lib/azure2/general/Folder_Blank.svg;" vertex="1" parent="1">
          <mxGeometry x="51" y="281.06" width="59" height="47.88" as="geometry" />
        </mxCell>
        <mxCell id="H7nxpd0ft--xDJzWJZUR-6" value="&lt;b&gt;CRM&lt;/b&gt;" style="text;html=1;align=center;verticalAlign=middle;whiteSpace=wrap;rounded=0;" vertex="1" parent="1">
          <mxGeometry x="47.25" y="330" width="60" height="30" as="geometry" />
        </mxCell>
        <mxCell id="H7nxpd0ft--xDJzWJZUR-25" style="edgeStyle=orthogonalEdgeStyle;rounded=0;orthogonalLoop=1;jettySize=auto;html=1;entryX=0;entryY=0.5;entryDx=0;entryDy=0;" edge="1" parent="1" source="H7nxpd0ft--xDJzWJZUR-7" target="H7nxpd0ft--xDJzWJZUR-22">
          <mxGeometry relative="1" as="geometry" />
        </mxCell>
        <mxCell id="H7nxpd0ft--xDJzWJZUR-26" style="edgeStyle=orthogonalEdgeStyle;rounded=0;orthogonalLoop=1;jettySize=auto;html=1;entryX=0;entryY=0.5;entryDx=0;entryDy=0;" edge="1" parent="1" source="H7nxpd0ft--xDJzWJZUR-7" target="H7nxpd0ft--xDJzWJZUR-23">
          <mxGeometry relative="1" as="geometry" />
        </mxCell>
        <mxCell id="H7nxpd0ft--xDJzWJZUR-27" style="edgeStyle=orthogonalEdgeStyle;rounded=0;orthogonalLoop=1;jettySize=auto;html=1;entryX=0;entryY=0.5;entryDx=0;entryDy=0;" edge="1" parent="1" source="H7nxpd0ft--xDJzWJZUR-7" target="H7nxpd0ft--xDJzWJZUR-24">
          <mxGeometry relative="1" as="geometry" />
        </mxCell>
        <mxCell id="H7nxpd0ft--xDJzWJZUR-7" value="" style="image;aspect=fixed;html=1;points=[];align=center;fontSize=12;image=img/lib/azure2/general/Folder_Blank.svg;" vertex="1" parent="1">
          <mxGeometry x="51" y="442.6" width="59" height="47.89" as="geometry" />
        </mxCell>
        <mxCell id="H7nxpd0ft--xDJzWJZUR-9" value="&lt;b&gt;ERP&lt;/b&gt;" style="text;html=1;align=center;verticalAlign=middle;whiteSpace=wrap;rounded=0;" vertex="1" parent="1">
          <mxGeometry x="45.5" y="495.77" width="60" height="30" as="geometry" />
        </mxCell>
        <mxCell id="H7nxpd0ft--xDJzWJZUR-10" value="" style="rounded=1;whiteSpace=wrap;html=1;fillColor=none;strokeColor=#d6b656;" vertex="1" parent="1">
          <mxGeometry x="205.63" y="200" width="166.25" height="370" as="geometry" />
        </mxCell>
        <mxCell id="H7nxpd0ft--xDJzWJZUR-11" style="edgeStyle=orthogonalEdgeStyle;rounded=0;orthogonalLoop=1;jettySize=auto;html=1;exitX=0.5;exitY=0;exitDx=0;exitDy=0;entryX=0.436;entryY=-0.01;entryDx=0;entryDy=0;entryPerimeter=0;" edge="1" parent="1" source="H7nxpd0ft--xDJzWJZUR-10" target="H7nxpd0ft--xDJzWJZUR-10">
          <mxGeometry relative="1" as="geometry" />
        </mxCell>
        <mxCell id="H7nxpd0ft--xDJzWJZUR-12" value="&lt;font style=&quot;font-size: 16px;&quot;&gt;&lt;b style=&quot;&quot;&gt;Bronze Layer&lt;/b&gt;&lt;/font&gt;" style="rounded=1;whiteSpace=wrap;html=1;fillColor=#ffe6cc;strokeColor=#d79b00;" vertex="1" parent="1">
          <mxGeometry x="217.5" y="150" width="142.5" height="40" as="geometry" />
        </mxCell>
        <mxCell id="H7nxpd0ft--xDJzWJZUR-41" style="edgeStyle=orthogonalEdgeStyle;rounded=0;orthogonalLoop=1;jettySize=auto;html=1;" edge="1" parent="1" source="H7nxpd0ft--xDJzWJZUR-13" target="H7nxpd0ft--xDJzWJZUR-33">
          <mxGeometry relative="1" as="geometry" />
        </mxCell>
        <mxCell id="H7nxpd0ft--xDJzWJZUR-13" value="&lt;font&gt;crm_sales_details&lt;/font&gt;" style="rounded=1;whiteSpace=wrap;html=1;fillColor=#ffe6cc;strokeColor=#d79b00;" vertex="1" parent="1">
          <mxGeometry x="225" y="250" width="135" height="30" as="geometry" />
        </mxCell>
        <mxCell id="H7nxpd0ft--xDJzWJZUR-42" style="edgeStyle=orthogonalEdgeStyle;rounded=0;orthogonalLoop=1;jettySize=auto;html=1;exitX=1;exitY=0.5;exitDx=0;exitDy=0;" edge="1" parent="1" source="H7nxpd0ft--xDJzWJZUR-15" target="H7nxpd0ft--xDJzWJZUR-34">
          <mxGeometry relative="1" as="geometry" />
        </mxCell>
        <mxCell id="H7nxpd0ft--xDJzWJZUR-15" value="&lt;font&gt;crm_cust_info&lt;/font&gt;" style="rounded=1;whiteSpace=wrap;html=1;fillColor=#ffe6cc;strokeColor=#d79b00;" vertex="1" parent="1">
          <mxGeometry x="225" y="290" width="135" height="30" as="geometry" />
        </mxCell>
        <mxCell id="H7nxpd0ft--xDJzWJZUR-43" style="edgeStyle=orthogonalEdgeStyle;rounded=0;orthogonalLoop=1;jettySize=auto;html=1;exitX=1;exitY=0.5;exitDx=0;exitDy=0;" edge="1" parent="1" source="H7nxpd0ft--xDJzWJZUR-16" target="H7nxpd0ft--xDJzWJZUR-35">
          <mxGeometry relative="1" as="geometry" />
        </mxCell>
        <mxCell id="H7nxpd0ft--xDJzWJZUR-16" value="&lt;font&gt;crm_prd_info&lt;/font&gt;" style="rounded=1;whiteSpace=wrap;html=1;fillColor=#ffe6cc;strokeColor=#d79b00;" vertex="1" parent="1">
          <mxGeometry x="225" y="330" width="135" height="32.12" as="geometry" />
        </mxCell>
        <mxCell id="H7nxpd0ft--xDJzWJZUR-44" style="edgeStyle=orthogonalEdgeStyle;rounded=0;orthogonalLoop=1;jettySize=auto;html=1;exitX=1;exitY=0.5;exitDx=0;exitDy=0;entryX=0;entryY=0.5;entryDx=0;entryDy=0;" edge="1" parent="1" source="H7nxpd0ft--xDJzWJZUR-22" target="H7nxpd0ft--xDJzWJZUR-36">
          <mxGeometry relative="1" as="geometry" />
        </mxCell>
        <mxCell id="H7nxpd0ft--xDJzWJZUR-22" value="erp_cust_az12" style="rounded=1;whiteSpace=wrap;html=1;fillColor=#ffe6cc;strokeColor=#d79b00;" vertex="1" parent="1">
          <mxGeometry x="225" y="411.54" width="135" height="28.46" as="geometry" />
        </mxCell>
        <mxCell id="H7nxpd0ft--xDJzWJZUR-45" style="edgeStyle=orthogonalEdgeStyle;rounded=0;orthogonalLoop=1;jettySize=auto;html=1;exitX=1;exitY=0.5;exitDx=0;exitDy=0;" edge="1" parent="1" source="H7nxpd0ft--xDJzWJZUR-23" target="H7nxpd0ft--xDJzWJZUR-37">
          <mxGeometry relative="1" as="geometry" />
        </mxCell>
        <mxCell id="H7nxpd0ft--xDJzWJZUR-23" value="&lt;font&gt;erp_loc_a101&lt;/font&gt;" style="rounded=1;whiteSpace=wrap;html=1;fillColor=#ffe6cc;strokeColor=#d79b00;" vertex="1" parent="1">
          <mxGeometry x="225" y="451.54" width="135" height="30" as="geometry" />
        </mxCell>
        <mxCell id="H7nxpd0ft--xDJzWJZUR-46" style="edgeStyle=orthogonalEdgeStyle;rounded=0;orthogonalLoop=1;jettySize=auto;html=1;exitX=1;exitY=0.5;exitDx=0;exitDy=0;" edge="1" parent="1" source="H7nxpd0ft--xDJzWJZUR-24" target="H7nxpd0ft--xDJzWJZUR-38">
          <mxGeometry relative="1" as="geometry" />
        </mxCell>
        <mxCell id="H7nxpd0ft--xDJzWJZUR-24" value="&lt;font&gt;erp_px_cat_g1v2&lt;/font&gt;" style="rounded=1;whiteSpace=wrap;html=1;fillColor=#ffe6cc;strokeColor=#d79b00;" vertex="1" parent="1">
          <mxGeometry x="225" y="490" width="135" height="30" as="geometry" />
        </mxCell>
        <mxCell id="H7nxpd0ft--xDJzWJZUR-28" style="edgeStyle=orthogonalEdgeStyle;rounded=0;orthogonalLoop=1;jettySize=auto;html=1;exitX=0.5;exitY=1;exitDx=0;exitDy=0;" edge="1" parent="1" source="H7nxpd0ft--xDJzWJZUR-16" target="H7nxpd0ft--xDJzWJZUR-16">
          <mxGeometry relative="1" as="geometry" />
        </mxCell>
        <mxCell id="H7nxpd0ft--xDJzWJZUR-29" style="edgeStyle=orthogonalEdgeStyle;rounded=0;orthogonalLoop=1;jettySize=auto;html=1;exitX=0.5;exitY=1;exitDx=0;exitDy=0;" edge="1" parent="1" source="H7nxpd0ft--xDJzWJZUR-24" target="H7nxpd0ft--xDJzWJZUR-24">
          <mxGeometry relative="1" as="geometry" />
        </mxCell>
        <mxCell id="H7nxpd0ft--xDJzWJZUR-30" value="" style="rounded=1;whiteSpace=wrap;html=1;fillColor=none;fontColor=#333333;strokeColor=#666666;" vertex="1" parent="1">
          <mxGeometry x="436.25" y="200" width="170" height="370" as="geometry" />
        </mxCell>
        <mxCell id="H7nxpd0ft--xDJzWJZUR-31" style="edgeStyle=orthogonalEdgeStyle;rounded=0;orthogonalLoop=1;jettySize=auto;html=1;exitX=0.5;exitY=0;exitDx=0;exitDy=0;entryX=0.436;entryY=-0.01;entryDx=0;entryDy=0;entryPerimeter=0;fillColor=#f5f5f5;strokeColor=#666666;" edge="1" parent="1" source="H7nxpd0ft--xDJzWJZUR-30" target="H7nxpd0ft--xDJzWJZUR-30">
          <mxGeometry relative="1" as="geometry" />
        </mxCell>
        <mxCell id="H7nxpd0ft--xDJzWJZUR-32" value="&lt;font style=&quot;font-size: 16px;&quot;&gt;&lt;b style=&quot;&quot;&gt;Silver Layer&lt;/b&gt;&lt;/font&gt;" style="rounded=1;whiteSpace=wrap;html=1;fillColor=#f5f5f5;strokeColor=#666666;fontColor=#333333;" vertex="1" parent="1">
          <mxGeometry x="450" y="150" width="142.5" height="40" as="geometry" />
        </mxCell>
        <mxCell id="H7nxpd0ft--xDJzWJZUR-33" value="&lt;font&gt;crm_sales_details&lt;/font&gt;" style="rounded=1;whiteSpace=wrap;html=1;fillColor=#f5f5f5;strokeColor=#666666;fontColor=#333333;" vertex="1" parent="1">
          <mxGeometry x="457.5" y="250" width="135" height="30" as="geometry" />
        </mxCell>
        <mxCell id="H7nxpd0ft--xDJzWJZUR-34" value="&lt;font&gt;crm_cust_info&lt;/font&gt;" style="rounded=1;whiteSpace=wrap;html=1;fillColor=#f5f5f5;strokeColor=#666666;fontColor=#333333;" vertex="1" parent="1">
          <mxGeometry x="457.5" y="290" width="135" height="30" as="geometry" />
        </mxCell>
        <mxCell id="H7nxpd0ft--xDJzWJZUR-35" value="&lt;font&gt;crm_prd_info&lt;/font&gt;" style="rounded=1;whiteSpace=wrap;html=1;fillColor=#f5f5f5;strokeColor=#666666;fontColor=#333333;" vertex="1" parent="1">
          <mxGeometry x="457.5" y="330" width="135" height="32.12" as="geometry" />
        </mxCell>
        <mxCell id="H7nxpd0ft--xDJzWJZUR-36" value="erp_cust_az12" style="rounded=1;whiteSpace=wrap;html=1;fillColor=#f5f5f5;strokeColor=#666666;fontColor=#333333;" vertex="1" parent="1">
          <mxGeometry x="457.5" y="411.54" width="135" height="28.46" as="geometry" />
        </mxCell>
        <mxCell id="H7nxpd0ft--xDJzWJZUR-37" value="&lt;font&gt;erp_loc_a101&lt;/font&gt;" style="rounded=1;whiteSpace=wrap;html=1;fillColor=#f5f5f5;strokeColor=#666666;fontColor=#333333;" vertex="1" parent="1">
          <mxGeometry x="457.5" y="451.54" width="135" height="30" as="geometry" />
        </mxCell>
        <mxCell id="H7nxpd0ft--xDJzWJZUR-38" value="&lt;font&gt;erp_px_cat_g1v2&lt;/font&gt;" style="rounded=1;whiteSpace=wrap;html=1;fillColor=#f5f5f5;strokeColor=#666666;fontColor=#333333;" vertex="1" parent="1">
          <mxGeometry x="457.5" y="490" width="135" height="30" as="geometry" />
        </mxCell>
        <mxCell id="H7nxpd0ft--xDJzWJZUR-39" style="edgeStyle=orthogonalEdgeStyle;rounded=0;orthogonalLoop=1;jettySize=auto;html=1;exitX=0.5;exitY=1;exitDx=0;exitDy=0;fillColor=#f5f5f5;strokeColor=#666666;" edge="1" parent="1" source="H7nxpd0ft--xDJzWJZUR-35" target="H7nxpd0ft--xDJzWJZUR-35">
          <mxGeometry relative="1" as="geometry" />
        </mxCell>
        <mxCell id="H7nxpd0ft--xDJzWJZUR-40" style="edgeStyle=orthogonalEdgeStyle;rounded=0;orthogonalLoop=1;jettySize=auto;html=1;exitX=0.5;exitY=1;exitDx=0;exitDy=0;fillColor=#f5f5f5;strokeColor=#666666;" edge="1" parent="1" source="H7nxpd0ft--xDJzWJZUR-38" target="H7nxpd0ft--xDJzWJZUR-38">
          <mxGeometry relative="1" as="geometry" />
        </mxCell>
        <mxCell id="H7nxpd0ft--xDJzWJZUR-49" value="" style="rounded=1;whiteSpace=wrap;html=1;fillColor=none;strokeColor=#d6b656;" vertex="1" parent="1">
          <mxGeometry x="686.25" y="200" width="170" height="370" as="geometry" />
        </mxCell>
        <mxCell id="H7nxpd0ft--xDJzWJZUR-50" style="edgeStyle=orthogonalEdgeStyle;rounded=0;orthogonalLoop=1;jettySize=auto;html=1;exitX=0.5;exitY=0;exitDx=0;exitDy=0;entryX=0.436;entryY=-0.01;entryDx=0;entryDy=0;entryPerimeter=0;fillColor=#fff2cc;strokeColor=#d6b656;" edge="1" parent="1" source="H7nxpd0ft--xDJzWJZUR-49" target="H7nxpd0ft--xDJzWJZUR-49">
          <mxGeometry relative="1" as="geometry" />
        </mxCell>
        <mxCell id="H7nxpd0ft--xDJzWJZUR-51" value="&lt;font style=&quot;font-size: 16px;&quot;&gt;&lt;b style=&quot;&quot;&gt;Gold Layer&lt;/b&gt;&lt;/font&gt;" style="rounded=1;whiteSpace=wrap;html=1;fillColor=#fff2cc;strokeColor=#d6b656;" vertex="1" parent="1">
          <mxGeometry x="703.75" y="150" width="142.5" height="40" as="geometry" />
        </mxCell>
        <mxCell id="H7nxpd0ft--xDJzWJZUR-52" value="&lt;font&gt;fact_sales&lt;/font&gt;" style="rounded=1;whiteSpace=wrap;html=1;fillColor=#fff2cc;strokeColor=#d6b656;" vertex="1" parent="1">
          <mxGeometry x="703.75" y="260" width="135" height="30" as="geometry" />
        </mxCell>
        <mxCell id="H7nxpd0ft--xDJzWJZUR-53" value="&lt;font&gt;dim_customers&lt;/font&gt;" style="rounded=1;whiteSpace=wrap;html=1;fillColor=#fff2cc;strokeColor=#d6b656;" vertex="1" parent="1">
          <mxGeometry x="703.75" y="320" width="135" height="30" as="geometry" />
        </mxCell>
        <mxCell id="H7nxpd0ft--xDJzWJZUR-54" value="&lt;font&gt;dim_products&lt;/font&gt;" style="rounded=1;whiteSpace=wrap;html=1;fillColor=#fff2cc;strokeColor=#d6b656;" vertex="1" parent="1">
          <mxGeometry x="703.75" y="379.42" width="135" height="32.12" as="geometry" />
        </mxCell>
        <mxCell id="H7nxpd0ft--xDJzWJZUR-58" style="edgeStyle=orthogonalEdgeStyle;rounded=0;orthogonalLoop=1;jettySize=auto;html=1;exitX=0.5;exitY=1;exitDx=0;exitDy=0;fillColor=#fff2cc;strokeColor=#d6b656;jumpStyle=gap;" edge="1" parent="1" source="H7nxpd0ft--xDJzWJZUR-54" target="H7nxpd0ft--xDJzWJZUR-54">
          <mxGeometry relative="1" as="geometry" />
        </mxCell>
        <mxCell id="H7nxpd0ft--xDJzWJZUR-60" value="" style="endArrow=classic;html=1;rounded=0;exitX=1;exitY=0.5;exitDx=0;exitDy=0;entryX=0;entryY=0.5;entryDx=0;entryDy=0;jumpStyle=gap;" edge="1" parent="1" source="H7nxpd0ft--xDJzWJZUR-33" target="H7nxpd0ft--xDJzWJZUR-52">
          <mxGeometry width="50" height="50" relative="1" as="geometry">
            <mxPoint x="400" y="390" as="sourcePoint" />
            <mxPoint x="450" y="340" as="targetPoint" />
          </mxGeometry>
        </mxCell>
        <mxCell id="H7nxpd0ft--xDJzWJZUR-64" value="" style="endArrow=classic;html=1;rounded=0;exitX=1;exitY=0.5;exitDx=0;exitDy=0;entryX=0;entryY=0.5;entryDx=0;entryDy=0;jumpStyle=gap;" edge="1" parent="1" source="H7nxpd0ft--xDJzWJZUR-34" target="H7nxpd0ft--xDJzWJZUR-53">
          <mxGeometry width="50" height="50" relative="1" as="geometry">
            <mxPoint x="620" y="350" as="sourcePoint" />
            <mxPoint x="670" y="300" as="targetPoint" />
          </mxGeometry>
        </mxCell>
        <mxCell id="H7nxpd0ft--xDJzWJZUR-65" value="" style="endArrow=classic;html=1;rounded=0;exitX=1;exitY=0.5;exitDx=0;exitDy=0;entryX=0;entryY=0.5;entryDx=0;entryDy=0;jumpStyle=gap;" edge="1" parent="1" source="H7nxpd0ft--xDJzWJZUR-36" target="H7nxpd0ft--xDJzWJZUR-53">
          <mxGeometry width="50" height="50" relative="1" as="geometry">
            <mxPoint x="610" y="420" as="sourcePoint" />
            <mxPoint x="660" y="370" as="targetPoint" />
          </mxGeometry>
        </mxCell>
        <mxCell id="H7nxpd0ft--xDJzWJZUR-66" value="" style="endArrow=classic;html=1;rounded=0;exitX=1;exitY=0.5;exitDx=0;exitDy=0;entryX=0;entryY=0.5;entryDx=0;entryDy=0;jumpStyle=gap;" edge="1" parent="1" source="H7nxpd0ft--xDJzWJZUR-37" target="H7nxpd0ft--xDJzWJZUR-53">
          <mxGeometry width="50" height="50" relative="1" as="geometry">
            <mxPoint x="620" y="450" as="sourcePoint" />
            <mxPoint x="670" y="400" as="targetPoint" />
          </mxGeometry>
        </mxCell>
        <mxCell id="H7nxpd0ft--xDJzWJZUR-67" value="" style="endArrow=classic;html=1;rounded=0;exitX=1;exitY=0.5;exitDx=0;exitDy=0;entryX=0;entryY=0.75;entryDx=0;entryDy=0;jumpStyle=gap;" edge="1" parent="1" source="H7nxpd0ft--xDJzWJZUR-35" target="H7nxpd0ft--xDJzWJZUR-54">
          <mxGeometry width="50" height="50" relative="1" as="geometry">
            <mxPoint x="630" y="530" as="sourcePoint" />
            <mxPoint x="680" y="480" as="targetPoint" />
          </mxGeometry>
        </mxCell>
        <mxCell id="H7nxpd0ft--xDJzWJZUR-68" value="" style="endArrow=classic;html=1;rounded=0;exitX=1;exitY=0.5;exitDx=0;exitDy=0;entryX=0;entryY=0.75;entryDx=0;entryDy=0;jumpStyle=gap;" edge="1" parent="1" source="H7nxpd0ft--xDJzWJZUR-38" target="H7nxpd0ft--xDJzWJZUR-54">
          <mxGeometry width="50" height="50" relative="1" as="geometry">
            <mxPoint x="640" y="480" as="sourcePoint" />
            <mxPoint x="690" y="430" as="targetPoint" />
          </mxGeometry>
        </mxCell>
      </root>
    </mxGraphModel>
  </diagram>
</mxfile>
